<?xml version="1.0" standalone="no"?>
<!DOCTYPE svg PUBLIC "-//W3C//DTD SVG 20010904//EN"
 "http://www.w3.org/TR/2001/REC-SVG-20010904/DTD/svg10.dtd">
<svg version="1.0" xmlns="http://www.w3.org/2000/svg"
 width="100.000000pt" height="100.000000pt" viewBox="0 0 500.000000 500.000000"
 preserveAspectRatio="xMidYMid meet">
<metadata>
Created by potrace 1.16, written by Peter Selinger 2001-2019
</metadata>
<g transform="translate(0.000000,500.000000) scale(0.100000,-0.100000)"
fill="#00817e" stroke="none">
<path d="M4669 3843 c-18 -37 -55 -115 -82 -173 -27 -58 -69 -146 -93 -196
-24 -50 -44 -94 -44 -97 0 -3 33 -7 73 -9 l72 -3 7 -145 c16 -355 28 -931 22
-1105 -5 -171 -8 -197 -32 -260 -52 -142 -128 -226 -240 -268 -187 -69 -454
-77 -2564 -77 -1152 0 -1738 -3 -1738 -10 0 -5 17 -10 38 -11 454 -13 1278
-28 2112 -38 459 -6 1017 -15 1240 -21 749 -19 898 -11 1034 54 176 85 301
250 342 451 16 80 18 146 17 580 0 270 -3 572 -8 673 l-7 182 71 0 c39 0 71 4
71 9 0 5 -31 74 -69 153 -37 78 -85 179 -105 223 -52 110 -70 146 -78 151 -4
3 -22 -26 -39 -63z"/>
<path d="M3990 3374 l0 -76 -107 7 c-120 7 -142 2 -197 -45 l-36 -32 0 36 0
36 -46 0 -47 0 7 -77 c3 -42 6 -168 6 -280 l0 -203 39 0 39 0 4 183 c4 177 5
185 31 229 38 66 77 79 206 71 l101 -6 0 -203 0 -204 29 -32 c25 -29 35 -32
94 -36 101 -6 117 0 117 48 0 28 -4 40 -14 40 -8 0 -18 -4 -21 -10 -12 -19
-71 -11 -93 13 -21 22 -22 32 -22 205 l0 182 75 0 75 0 0 40 0 40 -75 0 -75 0
0 75 0 75 -45 0 -45 0 0 -76z"/>
<path d="M1434 3291 c-60 -28 -84 -66 -84 -139 0 -45 5 -66 21 -86 22 -28 87
-66 113 -66 19 0 102 -27 134 -43 35 -17 52 -55 40 -88 -14 -40 -51 -61 -113
-61 -57 -1 -112 25 -140 64 l-14 21 -35 -24 c-20 -13 -36 -28 -36 -33 0 -5 18
-26 41 -46 45 -42 99 -60 181 -60 79 0 125 17 169 61 37 37 39 42 39 102 0 41
-5 70 -16 85 -24 34 -83 68 -142 81 -103 22 -162 57 -162 95 1 43 60 86 118
86 31 0 89 -32 113 -62 15 -20 16 -20 52 5 l37 25 -26 31 c-58 69 -198 94
-290 52z"/>
<path d="M2075 3296 c-16 -8 -42 -26 -57 -40 -28 -27 -38 -20 -38 25 0 16 -7
19 -40 19 l-40 0 0 -280 0 -280 44 0 44 0 4 183 c4 208 14 240 84 289 47 33
95 36 135 7 55 -39 59 -59 59 -279 l0 -200 44 0 45 0 3 183 c3 155 6 188 22
222 23 47 41 66 79 83 58 26 118 7 159 -50 22 -32 23 -42 26 -235 l3 -203 45
0 45 0 -3 218 c-3 188 -5 222 -21 251 -43 77 -102 105 -212 99 -64 -3 -78 -7
-112 -34 -21 -17 -43 -40 -48 -52 -11 -19 -11 -19 -24 9 -22 50 -67 74 -146
77 -45 1 -81 -3 -100 -12z"/>
<path d="M3029 3296 c-39 -14 -99 -53 -99 -64 0 -4 11 -20 24 -35 l25 -29 33
25 c83 61 186 61 240 0 16 -18 43 -91 36 -98 -2 -2 -48 -6 -103 -10 -138 -10
-198 -28 -246 -76 -38 -38 -39 -41 -39 -107 0 -64 2 -71 35 -109 43 -50 106
-69 198 -59 63 6 94 21 133 63 l23 25 3 -39 c3 -37 4 -38 44 -41 l41 -3 -3 98
c-2 54 -5 155 -7 225 -3 99 -8 133 -21 153 -27 41 -55 65 -92 81 -42 18 -176
18 -225 0z m261 -301 c0 -44 -39 -128 -72 -156 -42 -37 -110 -46 -166 -24 -34
14 -44 24 -53 54 -13 44 0 83 35 106 26 17 151 42 219 44 33 1 37 -2 37 -24z"/>
<path d="M350 2801 c-124 -29 -180 -107 -180 -253 l0 -68 -55 0 -55 0 0 -75 0
-75 55 0 55 0 0 -220 0 -220 100 0 100 0 0 220 0 220 65 0 65 0 0 75 0 75 -66
0 -66 0 4 60 c6 80 26 103 89 98 l47 -3 5 80 c3 44 5 81 3 82 -7 7 -137 10
-166 4z"/>
<path d="M635 2766 c-42 -12 -85 -62 -85 -98 0 -54 65 -118 120 -118 67 0 109
43 110 112 0 80 -64 127 -145 104z"/>
<path d="M1205 2486 c-16 -7 -45 -25 -62 -40 l-33 -28 0 31 0 31 -95 0 -95 0
0 -295 0 -295 100 0 100 0 0 174 c0 213 11 248 81 261 30 5 41 2 65 -18 l29
-25 3 -196 4 -196 99 0 99 0 0 221 c0 217 0 222 -26 273 -27 56 -51 79 -103
101 -41 18 -126 19 -166 1z"/>
<path d="M1780 2489 c-86 -38 -127 -61 -138 -79 -11 -18 -7 -26 38 -73 43 -45
52 -50 67 -40 50 35 82 47 130 47 57 0 88 -18 95 -58 5 -23 2 -23 -93 -29
-132 -8 -215 -44 -253 -109 -62 -105 -11 -226 109 -263 28 -8 64 -15 80 -15
41 0 125 27 147 47 17 15 18 15 18 -5 0 -21 4 -22 95 -22 l95 0 0 158 c-1 290
-25 372 -125 422 -41 21 -67 25 -145 27 -52 2 -106 -2 -120 -8z m200 -368 c0
-58 -55 -111 -116 -111 -34 0 -74 32 -74 59 0 38 58 69 133 70 50 1 57 -1 57
-18z"/>
<path d="M2572 2474 c-29 -14 -52 -30 -52 -35 0 -5 -4 -9 -10 -9 -5 0 -10 11
-10 25 l0 25 -100 0 -100 0 0 -295 0 -295 105 0 105 0 0 188 c0 186 0 187 26
217 20 23 33 30 63 30 77 0 91 -41 91 -260 l0 -175 101 0 101 0 -4 228 c-3
208 -5 230 -25 267 -58 109 -178 146 -291 89z"/>
<path d="M3220 2488 c-14 -6 -40 -17 -59 -26 -53 -23 -108 -79 -137 -140 -22
-47 -26 -69 -26 -142 0 -73 4 -96 26 -137 35 -70 109 -134 180 -155 108 -34
258 -16 320 37 l28 24 -38 48 c-68 83 -87 98 -96 72 -6 -17 -86 -30 -125 -20
-74 21 -111 111 -79 194 31 79 110 105 189 62 l36 -19 38 44 c21 25 46 53 56
62 9 10 17 22 17 27 0 6 -30 25 -67 43 -58 28 -79 33 -153 35 -47 2 -96 -2
-110 -9z"/>
<path d="M3765 2471 c-76 -37 -116 -76 -150 -146 -26 -51 -27 -61 -23 -157 6
-129 28 -174 118 -240 79 -57 219 -75 328 -41 54 17 142 83 142 106 0 7 -30
31 -67 54 l-66 41 -40 -29 c-48 -35 -117 -39 -166 -12 -26 15 -36 29 -59 76
-2 4 92 7 208 7 l212 0 -4 83 c-5 97 -28 155 -85 208 -59 55 -106 73 -203 76
-76 3 -91 0 -145 -26z m220 -141 c7 -6 18 -24 24 -41 l10 -29 -120 0 c-65 0
-119 4 -119 8 0 22 58 74 90 81 39 8 93 -1 115 -19z"/>
<path d="M570 2185 l0 -295 100 0 100 0 0 295 0 295 -100 0 -100 0 0 -295z"/>
</g>
</svg>
